<?xml version="1.0" encoding="iso-8859-1"?>
<!-- Uploaded to: SVG Repo, www.svgrepo.com, Generator: SVG Repo Mixer Tools -->
<!DOCTYPE svg PUBLIC "-//W3C//DTD SVG 1.1//EN" "http://www.w3.org/Graphics/SVG/1.1/DTD/svg11.dtd">
<svg fill="#000000" height="800px" width="800px" version="1.1" id="Capa_1" xmlns="http://www.w3.org/2000/svg" xmlns:xlink="http://www.w3.org/1999/xlink" 
	 viewBox="0 0 477.11 477.11" xml:space="preserve">
<g>
	<path d="M222.629,153.902c-14.045-6.152-23.889-20.134-23.889-36.456v-78.3c0-16.707,10.29-30.998,24.875-36.906
		c0.358-0.145,0.594-0.487,0.594-0.874v-0.41c0-0.559-0.482-1.002-1.038-0.953C133.251,7.797,62.701,83.25,62.701,175.186v17.909
		h159.928V153.902z"/>
	<path d="M62.701,301.255c0,97.12,78.728,175.854,175.854,175.854s175.855-78.735,175.855-175.854v-76.309H62.701V301.255z"/>
	<path d="M214.666,39.147v78.3c0,13.196,10.7,23.889,23.889,23.889c13.188,0,23.889-10.693,23.889-23.889v-78.3
		c0-13.196-10.701-23.889-23.889-23.889C225.366,15.258,214.666,25.95,214.666,39.147z"/>
	<path d="M253.938,0.004c-0.557-0.048-1.038,0.395-1.038,0.953v0.41c0,0.386,0.236,0.729,0.594,0.874
		c14.585,5.909,24.875,20.2,24.875,36.906v78.3c0,16.322-9.844,30.304-23.889,36.456v39.192h159.928v-17.909
		C414.409,83.25,343.858,7.797,253.938,0.004z"/>
</g>
</svg>