<?xml version="1.0" encoding="iso-8859-1"?>
<!-- Uploaded to: SVG Repo, www.svgrepo.com, Generator: SVG Repo Mixer Tools -->
<!DOCTYPE svg PUBLIC "-//W3C//DTD SVG 1.1//EN" "http://www.w3.org/Graphics/SVG/1.1/DTD/svg11.dtd">
<svg fill="#000000" height="800px" width="800px" version="1.1" id="Capa_1" xmlns="http://www.w3.org/2000/svg" xmlns:xlink="http://www.w3.org/1999/xlink" 
	 viewBox="0 0 477.778 477.778" xml:space="preserve">
<path d="M366.296,127.408H111.481C49.909,127.408,0,177.316,0,238.889C0,300.462,49.909,350.37,111.481,350.37h254.815
	c61.573,0,111.482-49.909,111.482-111.481C477.778,177.316,427.869,127.408,366.296,127.408z M336.724,314.311
	c0,5.624-4.558,10.18-10.18,10.18H151.234c-5.622,0-10.179-4.556-10.179-10.18V163.467c0-5.623,4.557-10.18,10.179-10.18h175.309
	c5.622,0,10.18,4.556,10.18,10.18V314.311z M366.296,259.363c-0.132,0-0.232,0.07-0.365,0.07c-9.877,0-17.886-8.017-17.886-17.901
	c0-9.868,8.009-17.885,17.886-17.885c0.132,0,0.233,0.07,0.365,0.07c9.713,0.209,17.536,8.079,17.536,17.815
	C383.832,251.284,376.01,259.155,366.296,259.363z M402.823,296.324c-9.877,0-17.886-8.009-17.886-17.893
	c0-9.884,8.009-17.893,17.886-17.893c9.892,0,17.901,8.009,17.901,17.893C420.723,288.315,412.714,296.324,402.823,296.324z
	 M402.823,222.543c-9.877,0-17.886-8.009-17.886-17.893c0-9.884,8.009-17.893,17.886-17.893c9.892,0,17.901,8.009,17.901,17.893
	C420.723,214.533,412.714,222.543,402.823,222.543z M439.713,259.433c-9.877,0-17.886-8.017-17.886-17.901
	c0-9.868,8.009-17.885,17.886-17.885c9.892,0,17.901,8.017,17.901,17.885C457.614,251.416,449.605,259.433,439.713,259.433z"/>
</svg>