<?xml version="1.0" encoding="iso-8859-1"?>
<!-- Uploaded to: SVG Repo, www.svgrepo.com, Generator: SVG Repo Mixer Tools -->
<!DOCTYPE svg PUBLIC "-//W3C//DTD SVG 1.1//EN" "http://www.w3.org/Graphics/SVG/1.1/DTD/svg11.dtd">
<svg fill="#000000" height="800px" width="800px" version="1.1" id="Capa_1" xmlns="http://www.w3.org/2000/svg" xmlns:xlink="http://www.w3.org/1999/xlink" 
	 viewBox="0 0 478.331 478.331" xml:space="preserve">
<g>
	<path d="M344.58,296.917l-32.863-18.227l13.22-28.393c7.45-1.757,14.091-6.679,17.574-14.168
		c6.034-12.956,0.42-28.353-12.535-34.379c-12.954-6.034-28.351-0.42-34.386,12.535c-3.485,7.488-2.972,15.732,0.481,22.567
		l-12.271,26.354l-93.066-51.635V0h-67.126c-17.17,0-31.105,13.927-31.105,31.113v416.105c0,17.186,13.935,31.113,31.105,31.113
		h205.887c17.17,0,31.105-13.927,31.105-31.113V324.126C360.601,312.819,354.472,302.398,344.58,296.917z"/>
	<path d="M257.751,106.186c0-58.026-21.836-105.081-48.757-105.081c-0.342,0-0.669,0.092-1.011,0.108v209.953
		c0.342,0.008,0.669,0.108,1.011,0.108C235.915,211.275,257.751,164.228,257.751,106.186z"/>
	<path d="M377.864,98.223h-76.986c-4.402,0-7.963,3.561-7.963,7.963c0,4.402,3.561,7.963,7.963,7.963h76.986
		c4.4,0,7.963-3.561,7.963-7.963C385.827,101.784,382.264,98.223,377.864,98.223z"/>
	<path d="M380.912,162.534l-76.986-31.852c-4.06-1.694-8.726,0.249-10.404,4.316c-1.68,4.06,0.248,8.718,4.308,10.396l76.986,31.852
		c0.995,0.412,2.037,0.607,3.048,0.607c3.126,0,6.08-1.851,7.356-4.923C386.9,168.871,384.972,164.214,380.912,162.534z"/>
	<path d="M300.878,82.297c1.011,0,2.053-0.194,3.048-0.607l76.986-31.852c4.06-1.679,5.988-6.337,4.308-10.396
		c-1.68-4.06-6.331-5.98-10.404-4.316L297.83,66.978c-4.06,1.68-5.988,6.337-4.308,10.396
		C294.796,80.447,297.752,82.297,300.878,82.297z"/>
</g>
</svg>